<svg xmlns="http://www.w3.org/2000/svg" width="40" height="39.991" viewBox="0 0 40 39.991">
  <defs>
    <style>
      .cls-1 {
        fill: #b6232c;
      }
    </style>
  </defs>
  <path id="Tracé_4" data-name="Tracé 4" class="cls-1" d="M666.315,371.239a20,20,0,1,0-24.389,0l.05.046a.932.932,0,0,0,.3.227l.076.044a19.862,19.862,0,0,0,23.533,0l.068-.04a1.033,1.033,0,0,0,.311-.231Zm-2.034-1.011a17.885,17.885,0,0,1-20.32,0l-.2-.135.021-.238a8.536,8.536,0,0,1,8.437-7.718h3.8a8.522,8.522,0,0,1,8.437,7.719l.021.237Zm-17.687-17.65a7.527,7.527,0,1,1,7.527,7.527A7.536,7.536,0,0,1,646.594,352.578Zm13.382,8.313-.663-.27.57-.433a9.565,9.565,0,1,0-11.524-.01l.573.432-.664.271a10.58,10.58,0,0,0-6.186,7.027l-.182.684-.5-.5a17.8,17.8,0,0,1-5.245-12.667A17.969,17.969,0,1,1,666.845,368.1l-.5.5-.182-.686A10.558,10.558,0,0,0,659.975,360.891Z" transform="translate(-634.121 -335.425)"/>
</svg>
