<svg xmlns="http://www.w3.org/2000/svg" width="40" height="31.616" viewBox="0 0 40 31.616">
  <defs>
    <style>
      .cls-1 {
        fill: #fff;
      }
    </style>
  </defs>
  <g id="Groupe_4" data-name="Groupe 4" transform="translate(-1048.884 -346.357)">
    <path id="Tracé_5" data-name="Tracé 5" class="cls-1" d="M1088.558,371.495a4.372,4.372,0,0,0,6.188,6.178c.962-.962,6.328-8.671,11.027-15.562a1.185,1.185,0,0,0-1.647-1.647C1097.236,365.159,1089.529,370.524,1088.558,371.495Zm10.371-3.62c-1.917,2.757-5.226,7.478-5.862,8.123l0,0a1.988,1.988,0,0,1-1.415.586h0a2,2,0,0,1-1.415-3.416c.64-.632,5.366-3.945,8.127-5.864l1.861-1.294Z" transform="translate(-22.767 -8.231)"/>
    <path id="Tracé_6" data-name="Tracé 6" class="cls-1" d="M1077.1,348.131a19.968,19.968,0,0,0-24.814,29.316,1.19,1.19,0,0,0,1.5.407l3.263-1.593a1.186,1.186,0,0,0-.933-2.18l-2.416,1.179-.188-.336a17.491,17.491,0,0,1-1.1-14.823l.158-.414,2.653,1.272a1.186,1.186,0,1,0,1.084-2.109l-2.7-1.295.236-.385a17.724,17.724,0,0,1,13.4-8.35l.446-.042v2.844a1.186,1.186,0,0,0,2.371-.01v-2.837l.444.04a17.386,17.386,0,0,1,5.61,1.478,1.185,1.185,0,1,0,.975-2.161Z"/>
    <path id="Tracé_7" data-name="Tracé 7" class="cls-1" d="M1125.836,392.366l3.335,1.589a1.194,1.194,0,0,0,1.5-.411,19.816,19.816,0,0,0,1.625-19.309h0a1.185,1.185,0,1,0-2.16.976,17.626,17.626,0,0,1-.7,15.821l-.187.332-2.4-1.142a1.154,1.154,0,0,0-.467-.1,1.187,1.187,0,0,0-.542,2.244Z" transform="translate(-45.187 -16.095)"/>
  </g>
</svg>
