<svg xmlns="http://www.w3.org/2000/svg" width="40" height="39.183" viewBox="0 0 40 39.183">
  <defs>
    <style>
      .cls-1 {
        fill: #fff;
      }
    </style>
  </defs>
  <g id="Groupe_16" data-name="Groupe 16" transform="translate(-491 -347)">
    <g id="Groupe_15" data-name="Groupe 15" transform="translate(491 347)">
      <g id="Groupe_13" data-name="Groupe 13" transform="translate(0)">
        <path id="Tracé_25" data-name="Tracé 25" class="cls-1" d="M104.117,489.217a5.007,5.007,0,1,0,5.1,5A5.057,5.057,0,0,0,104.117,489.217Zm0,8.169a3.165,3.165,0,1,1,3.256-3.165A3.214,3.214,0,0,1,104.117,497.386Z" transform="translate(-90.172 -480.553)"/>
        <path id="Tracé_26" data-name="Tracé 26" class="cls-1" d="M104.791,479.768c0-.687-.126-.877-3.727-2.167l-.084-.03-.346-.822.035-.08c1.529-3.474,1.48-3.7,1-4.176l-2.326-2.245h-.377c-.193,0-.553,0-3.5,1.334l-.079.036-.862-.349-.032-.079c-1.42-3.51-1.61-3.632-2.274-3.632h-2.86c-.67,0-.878.134-2.191,3.642l-.031.083-.862.349-.077-.032c-3.009-1.265-3.378-1.265-3.555-1.265l-.409.007-2.289,2.242c-.516.5-.484.852,1.062,4.118l.039.082-.344.818-.08.031c-3.593,1.392-3.719,1.582-3.719,2.25v2.8c0,.674.137.883,3.729,2.169l.084.03.344.818-.035.079c-1.529,3.472-1.48,3.694-1,4.171l2.32,2.252h.377c.191,0,.547,0,3.5-1.335l.079-.035.867.352.032.079c1.414,3.5,1.622,3.632,2.276,3.632h2.86c.669,0,.877-.133,2.193-3.64l.031-.082.865-.354.077.032c3.005,1.267,3.374,1.267,3.55,1.267l.409-.007,2.3-2.25c.481-.478.534-.72-1.073-4.112l-.039-.081.344-.821.08-.031c3.593-1.393,3.719-1.583,3.719-2.252Zm-1.845,2.279-.119.054c-.6.27-1.721.73-2.864,1.173l-.364.142-.972,2.3.179.374c.456.949.959,2.064,1.222,2.712l.051.126L98.8,490.178l-.119-.042c-.714-.255-2-.784-2.888-1.16l-.353-.151-2.326.943-.141.38c-.336.9-.809,2.11-1.109,2.787l-.053.12H89.983l-.055-.115c-.33-.7-.852-1.945-1.2-2.8l-.146-.365-2.324-.942L85.9,489c-1.026.47-2.182.968-2.812,1.211l-.122.047L81.688,489l.046-.123c.232-.618.7-1.742,1.17-2.8l.16-.362-.966-2.3-.383-.136c-.87-.311-2.138-.781-2.847-1.084l-.122-.052v-1.744l.118-.054c.693-.313,1.937-.814,2.862-1.172l.364-.139.972-2.3-.178-.373c-.485-1.018-.976-2.108-1.222-2.714l-.051-.126,1.276-1.248.119.042c.628.223,1.819.7,2.9,1.157l.352.15,2.32-.942.141-.378c.316-.845.795-2.082,1.107-2.787l.053-.12H91.7l.055.115c.285.6.779,1.753,1.2,2.807l.146.362,2.324.937.361-.164c1.066-.487,2.2-.974,2.814-1.213l.121-.047L100,473.446l-.046.124c-.23.611-.689,1.709-1.17,2.8l-.162.365.968,2.3.385.136c1.012.358,2.182.8,2.844,1.079l.124.052Z" transform="translate(-76.899 -467.558)"/>
      </g>
      <g id="Groupe_14" data-name="Groupe 14" transform="translate(23.667 22.589)">
        <path id="Tracé_27" data-name="Tracé 27" class="cls-1" d="M152.333,534.163c.229-.657-.088-1-1.539-2.182l-.064-.052-.019-.171.056-.09c1.379-1.562,1.53-1.854,1.245-2.406l-.7-1.454a1.009,1.009,0,0,0-1.011-.567c-.358,0-1.054.071-1.62.132l-.214.023-.01-.215c-.086-1.943-.166-2.379-.808-2.588l-1.669-.561h-.156c-.441,0-.624.07-1.872,1.642l-.134.168-.16-.144c-1.471-1.326-1.612-1.326-1.95-1.326h-.228l-1.668.851c-.564.3-.613.62-.4,2.652l.009.088-.114.13-.1.026c-1.9.112-2.328.2-2.546.834l-.525,1.568c-.208.648.086.964,1.552,2.156l.064.052.019.171-.057.09c-1.358,1.53-1.509,1.824-1.245,2.414l.7,1.454a1.018,1.018,0,0,0,1.012.554c.376,0,1.124-.078,1.618-.13l.213-.022.01.214c.1,2.066.194,2.381.811,2.589l1.671.56h.154c.466,0,.678-.142,1.865-1.64l.134-.169.16.144c1.471,1.326,1.623,1.326,1.954,1.326H147l1.644-.843c.608-.309.623-.748.426-2.66l-.009-.087.113-.13.1-.023c1.92-.114,2.35-.2,2.541-.828Zm-1.511.642-.13.013c-.512.048-1.2.092-1.557.113l-.444.026-1.286,1.51.045.447c.055.5.109,1.1.141,1.554l.01.133-.48.245-.1-.087c-.342-.29-.785-.682-1.156-1.022l-.33-.3-1.978.142-.285.364c-.316.4-.69.865-.972,1.2l-.088.1-.476-.156-.01-.135c-.04-.535-.075-1.128-.092-1.588l-.02-.441-1.486-1.314-.465.058c-.4.049-1.006.116-1.49.159l-.139.013-.232-.481.082-.1c.287-.349.691-.817,1.053-1.22l.287-.323-.12-1.978-.358-.288c-.458-.371-.885-.728-1.172-.979l-.1-.089.184-.536.13-.012c.41-.039,1.007-.083,1.56-.116l.447-.022,1.281-1.51-.045-.444c-.051-.468-.1-1.066-.139-1.558l-.009-.134.478-.242.1.087c.369.315.812.706,1.156,1.022l.33.3,1.97-.146.286-.365c.316-.4.692-.865.975-1.2l.088-.105.48.16.011.133c.036.448.069,1.054.1,1.582l.019.443,1.484,1.314.465-.058c.389-.048,1-.115,1.491-.157l.139-.012.231.482-.081.1c-.265.326-.667.8-1.048,1.225l-.288.324.122,1.969.354.288c.393.319.841.694,1.168.977l.1.089Z" transform="translate(-136.068 -524.031)"/>
        <path id="Tracé_28" data-name="Tracé 28" class="cls-1" d="M152.616,536.636a3.271,3.271,0,0,0-1.022-.164,3.348,3.348,0,0,0-2.98,4.816,3.227,3.227,0,0,0,1.886,1.661,3.172,3.172,0,0,0,1.027.169,3.353,3.353,0,0,0,2.964-4.844A3.229,3.229,0,0,0,152.616,536.636Zm.291,3.612a1.494,1.494,0,0,1-1.394,1.015,1.313,1.313,0,0,1-.422-.069,1.478,1.478,0,0,1,.935-2.8,1.393,1.393,0,0,1,.808.71A1.487,1.487,0,0,1,152.907,540.248Z" transform="translate(-143.391 -531.496)"/>
      </g>
    </g>
  </g>
</svg>
