<svg id="Groupe_300" data-name="Groupe 300" xmlns="http://www.w3.org/2000/svg" width="54.732" height="54.732" viewBox="0 0 54.732 54.732">
  <defs>
    <style>
      .cls-1 {
        fill: #a482a6;
      }
    </style>
  </defs>
  <path id="Tracé_114" data-name="Tracé 114" class="cls-1" d="M207.695,229.381a2.661,2.661,0,0,1-1.6-.361,1.667,1.667,0,0,1-.46-1.368,7.107,7.107,0,0,1,.149-1.244,13.71,13.71,0,0,1,.323-1.393l1.468-5.05a7.648,7.648,0,0,0,.3-1.53c0-.56.075-.945.075-1.169a3.272,3.272,0,0,0-1.157-2.6,4.864,4.864,0,0,0-3.284-1,8.523,8.523,0,0,0-2.488.41q-1.319.41-2.774.983l-.423,1.642c.286-.1.634-.211,1.032-.336a4.23,4.23,0,0,1,1.169-.174,2.388,2.388,0,0,1,1.58.386,1.8,1.8,0,0,1,.41,1.356,5.9,5.9,0,0,1-.137,1.244q-.131.653-.336,1.381l-1.48,5.075a14.508,14.508,0,0,0-.286,1.431,8.886,8.886,0,0,0-.087,1.244,3.246,3.246,0,0,0,1.244,2.575,4.976,4.976,0,0,0,3.334,1.02,7.673,7.673,0,0,0,2.488-.361q1.057-.361,2.824-1.032l.4-1.567a6.868,6.868,0,0,1-.983.323A4.723,4.723,0,0,1,207.695,229.381Z" transform="translate(-176.672 -190.819)"/>
  <path id="Tracé_115" data-name="Tracé 115" class="cls-1" d="M254.567,128.923a3.784,3.784,0,0,0-4.976,0,2.973,2.973,0,0,0,0,4.5,3.732,3.732,0,0,0,4.976,0,2.986,2.986,0,0,0,0-4.5Z" transform="translate(-221.989 -114.308)"/>
  <path id="Tracé_116" data-name="Tracé 116" class="cls-1" d="M27.366,0A27.366,27.366,0,1,0,54.732,27.366,27.366,27.366,0,0,0,27.366,0Zm0,52.244A24.878,24.878,0,1,1,52.244,27.366,24.878,24.878,0,0,1,27.366,52.244Z"/>
</svg>
